<?xml version="1.0" encoding="UTF-8"?>
<svg width="28px" height="27px" viewBox="0 0 28 27" version="1.1" xmlns="http://www.w3.org/2000/svg" xmlns:xlink="http://www.w3.org/1999/xlink">
    <!-- Generator: Sketch 51.1 (57501) - http://www.bohemiancoding.com/sketch -->
    <title>Combined Shape</title>
    <desc>Created with Sketch.</desc>
    <defs></defs>
    <g id="Flow" stroke="none" stroke-width="1" fill="none" fill-rule="evenodd">
        <g id="Menu-expanded" transform="translate(-328.000000, -22.000000)" fill="#FFFFFF" fill-rule="nonzero">
            <g id="Nav-Bar">
                <path d="M342,33.3786797 L352.606602,22.7720779 C353.192388,22.1862915 354.142136,22.1862915 354.727922,22.7720779 C355.313708,23.3578644 355.313708,24.3076118 354.727922,24.8933983 L344.12132,35.5 L354.727922,46.1066017 C355.313708,46.6923882 355.313708,47.6421356 354.727922,48.2279221 C354.142136,48.8137085 353.192388,48.8137085 352.606602,48.2279221 L342,37.6213203 L331.393398,48.2279221 C330.807612,48.8137085 329.857864,48.8137085 329.272078,48.2279221 C328.686292,47.6421356 328.686292,46.6923882 329.272078,46.1066017 L339.87868,35.5 L329.272078,24.8933983 C328.686292,24.3076118 328.686292,23.3578644 329.272078,22.7720779 C329.857864,22.1862915 330.807612,22.1862915 331.393398,22.7720779 L342,33.3786797 Z" id="Combined-Shape"></path>
            </g>
        </g>
    </g>
</svg>