<?xml version="1.0" encoding="UTF-8"?>
<svg width="148px" height="129px" viewBox="0 0 148 129" version="1.1" xmlns="http://www.w3.org/2000/svg" xmlns:xlink="http://www.w3.org/1999/xlink">
    <!-- Generator: Sketch 51.1 (57501) - http://www.bohemiancoding.com/sketch -->
    <title>Group 24</title>
    <desc>Created with Sketch.</desc>
    <defs></defs>
    <g id="Flow" stroke="none" stroke-width="1" fill="none" fill-rule="evenodd">
        <g id="Splash-Screen" transform="translate(-108.000000, -221.000000)">
            <g id="Group-24" transform="translate(108.000000, 221.000000)">
                <g id="Group-13">
                    <path d="M142.609543,41.2087736 C142.051766,41.2087736 141.48018,41.2885667 140.908894,41.4447161 L134.449279,43.215854 L127.740046,26.9473253 C125.840062,22.3389 120.222216,18.5896701 115.217835,18.5896701 L52.4355144,18.5896701 C47.4317335,18.5896701 41.8132872,22.3389 39.9124028,26.9473253 L33.2133765,43.1935897 L26.8336158,41.4447161 C26.2624799,41.2885667 25.6907436,41.2087736 25.1331168,41.2087736 C22.080054,41.2087736 19.8644069,43.5306931 19.8644069,46.7300379 L19.8644069,50.5214057 C19.8644069,50.6765092 19.8770154,50.8287736 19.8881229,50.9820839 C17.2283258,52.6511644 14.7324394,54.6171529 12.4549505,56.8843828 C4.44959148,64.8530839 0.0403622718,75.449877 0.0403622718,86.7211759 C0.0403622718,97.992923 4.44959148,108.589118 12.4555509,116.55782 C20.4618105,124.527716 31.1061026,128.917682 42.4278024,128.917682 C53.7495022,128.917682 64.3943947,124.528164 72.3999039,116.55782 C77.066557,111.913084 80.5005773,106.3709 82.5623704,100.326946 L122.0488,100.326946 L122.0488,108.397705 C122.0488,112.131992 125.100662,115.169957 128.851847,115.169957 L137.73635,115.169957 C141.487385,115.169957 144.539397,112.131992 144.539397,108.397705 L144.539397,76.0780609 C144.539397,71.4490149 143.103376,64.2002448 141.337433,59.9184632 L140.254452,57.2932103 L141.075506,57.2932103 C144.826691,57.2932103 147.878703,54.2550954 147.878703,50.520808 L147.878703,46.7294402 C147.878703,43.5306931 145.662606,41.2087736 142.609543,41.2087736 Z M48.2385286,29.0084977 C49.3750966,26.2516011 52.7553805,23.9964747 55.7479525,23.9964747 L111.904646,23.9964747 C114.898119,23.9964747 118.277502,26.2516011 119.41407,29.0084977 L129.561827,53.6152563 C130.698395,56.3723023 129.179368,58.6274287 126.185896,58.6274287 L74.0483176,58.6274287 C73.5154576,58.0345092 72.9689383,57.4505552 72.3996037,56.8833368 C64.3924434,48.9128425 53.7483014,44.523923 42.4270519,44.523923 C42.2286178,44.523923 42.0324353,44.5352793 41.8343014,44.5382678 L48.2385286,29.0084977 Z M42.4278024,116.288107 C34.4947923,116.288107 27.0362527,113.211889 21.4263623,107.627268 C15.8166219,102.043245 12.7275347,94.6190494 12.7275347,86.7211759 C12.7275347,78.8233023 15.8172223,71.3989575 21.4263623,65.8144862 C27.0362527,60.2303138 34.4947923,57.1546931 42.4278024,57.1546931 C50.3611128,57.1546931 57.819202,60.2303138 63.4289424,65.8144862 C69.0383826,71.3989575 72.1280702,78.8233023 72.1280702,86.7211759 C72.1280702,94.6190494 69.038983,102.043245 63.4289424,107.627268 C57.8184515,113.211889 50.3611128,116.288107 42.4278024,116.288107 Z M131.445449,84.7396471 C131.445449,86.2294172 130.220772,87.4485782 128.723961,87.4485782 L109.447936,87.4485782 C107.951425,87.4485782 106.726748,86.2294172 106.726748,84.7396471 L106.726748,75.5295207 C106.726748,74.0396011 107.951425,72.8205897 109.447936,72.8205897 L128.723961,72.8205897 C130.220772,72.8205897 131.445449,74.0396011 131.445449,75.5295207 L131.445449,84.7396471 Z" id="Fill-1" fill="#000000"></path>
                    <path d="M109.875202,13.7798502 C109.875202,6.48439331 98.4001454,0.570274713 84.2449903,0.570274713 C70.0899678,0.570274713 58.6151768,6.48439331 58.6151768,13.7798502 C58.6151768,14.8443678 58.6151768,16.7766378 58.6151768,19.5766602 L109.875202,19.9462891 C109.875202,17.0026381 109.875202,14.9471585 109.875202,13.7798502 Z" id="Fill-3" fill="#000000"></path>
                    <g id="Group-4" transform="translate(69.000000, 6.000000)">
                        <path d="M5.06662717,1.79588318 L5.06662717,9.31032039 C5.06662717,9.69129752 4.75674715,10 4.37446304,10 L3.63229151,10 C3.25000741,10 2.94012739,9.69129752 2.94012739,9.31032039 L2.94012739,1.79588318 L0.692045623,1.79588318 C0.309880018,1.79588318 0,1.4871807 0,1.10608548 L0,0.689797702 C0,0.308702481 0.309880018,0 0.692045623,0 L7.30771738,0 C7.69000148,0 8,0.308702481 8,0.689797702 L8,1.10608548 C8,1.4871807 7.69000148,1.79588318 7.30771738,1.79588318 L5.06662717,1.79588318 Z" id="Fill-5" fill="#FFFFFF"></path>
                        <path d="M16.874638,9.69672635 C16.7389627,9.88627238 16.5121286,9.9998819 16.2696637,9.9998819 L15.4103451,9.9998819 C15.108108,9.9998819 14.8370075,9.82403515 14.7285923,9.55748973 L13.9955706,7.75686145 L9.90830525,7.75686145 L9.21979999,9.54568 C9.11501114,9.81836648 8.84090952,10 8.53354556,10 L7.73024775,10 C7.48915836,10 7.26369978,9.88768955 7.12752429,9.69956068 C6.9913488,9.51166801 6.962213,9.27216685 7.0498705,9.05994615 L10.6048135,0.439203552 C10.714229,0.174311493 10.9844542,0 11.2854408,0 L12.6145586,0 C12.9130442,0 13.1816438,0.171359063 13.2925599,0.433416789 L16.947415,9.05392319 C17.0378235,9.26626199 17.0104383,9.50718031 16.874638,9.69672635" id="Fill-7" fill="#FFFFFF"></path>
                        <path d="M25.9204467,9.63615107 C25.8037124,9.8601762 25.5769013,10 25.329544,10 L24.4622439,10 C24.2338258,10 24.021133,9.88037034 23.8979708,9.68244408 L22.0011823,6.6384421 L20.097966,9.68327074 C19.9748039,9.88072463 19.7623406,10 19.5342668,10 L18.670525,10 C18.4239712,10 18.1978488,9.86112095 18.0805406,9.63827677 C17.9635767,9.41531449 17.9747107,9.14428777 18.1093511,8.93230827 L20.750048,4.78447767 L18.4085903,1.06485746 C18.2749829,0.852759867 18.2649968,0.58244172 18.382305,0.360424195 C18.4996132,0.138288576 18.7255061,0.000118094428 18.9712564,0.000118094428 L19.7776067,0.000118094428 C20.0086648,0.000118094428 20.2237681,0.122818205 20.3462415,0.324523489 L22.039979,3.11603959 L23.6957232,0.329837738 C23.817508,0.125062 24.0342182,0 24.267572,0 L25.057164,0 C25.30257,0 25.5277742,0.137580009 25.6453119,0.358652779 C25.7628497,0.579843643 25.7541262,0.849453223 25.6218962,1.06155082 L23.2587445,4.85769621 L25.8876188,8.92829306 C26.0247844,9.14027256 26.037181,9.41212594 25.9204467,9.63615107" id="Fill-9" fill="#FFFFFF"></path>
                        <path d="M29,9.31021044 C29,9.69118307 28.7085539,10 28.3490109,10 L27.6509891,10 C27.2914461,10 27,9.69118307 27,9.31021044 L27,0.689789556 C27,0.30881693 27.2914461,0 27.6509891,0 L28.3490109,0 C28.7085539,0 29,0.30881693 29,0.689789556 L29,9.31021044 Z" id="Fill-11" fill="#FFFFFF"></path>
                        <polygon id="Fill-14" fill="#000000" points="11 6 13 6 12.0454102 2"></polygon>
                    </g>
                </g>
                <g id="Group-23" transform="translate(26.000000, 68.000000)" fill="#FFFFFF">
                    <g id="Group-2">
                        <g id="Group">
                            <g id="Group-3">
                                <path d="M21.5155495,23.3574813 C20.8304664,22.6877395 19.7225152,22.6877395 19.037309,23.3574813 C18.352349,24.0273434 18.352349,25.1106783 19.037309,25.7805404 L21.019926,27.7189877 L12.9732462,27.7189877 C7.74026981,27.7189877 3.49841729,23.5570556 3.49841729,18.4545481 L3.49841729,12.7103451 C3.49841729,11.7696493 2.71115645,11 1.74908554,11 C0.787137736,11 0,11.7696493 0,12.7103451 L0,18.4545481 C0,25.452651 5.81612798,31.1397984 12.9732462,31.1397984 L21.019926,31.1397984 L19.037309,33.0781253 C18.352349,33.7481078 18.352349,34.831202 19.037309,35.5011844 C19.3726489,35.8289535 19.8245698,36 20.2764908,36 C20.7282887,36 21.1656832,35.8289535 21.5155495,35.5011844 L26.4861877,30.6408624 C27.1712708,29.9710003 27.1712708,28.8876654 26.4861877,28.2178033 L21.5155495,23.3574813 Z" id="Fill-19"></path>
                                <path d="M17.0121931,4.86308525 L8.96569136,4.86308525 L10.9480486,2.9249039 C11.6332502,2.25525406 11.6332502,1.17218811 10.9480486,0.502417913 C10.2630933,-0.167472638 9.15514971,-0.167472638 8.46994817,0.502417913 L3.51399349,5.36195272 C2.82866884,6.03172292 2.82866884,7.11490922 3.51399349,7.78455906 L8.48459765,12.6442142 C8.81993523,12.9720586 9.27173,13.143202 9.72377097,13.143202 C10.1755657,13.143202 10.6129572,12.9720586 10.962575,12.6442142 C11.6477765,11.9745644 11.6477765,10.8914984 10.962575,10.2214875 L8.98034084,8.28342653 L17.0267194,8.28342653 C22.2597831,8.28342653 26.5016066,12.4446672 26.5016066,17.5468358 L26.5016066,23.2898895 C26.5016066,24.2305767 27.2888621,25 28.2508033,25 C29.2128676,25 30,24.2305767 30,23.2898895 L30,17.5468358 C30,10.5493319 24.1693854,4.86308525 17.0121931,4.86308525" id="Fill-15"></path>
                            </g>
                        </g>
                    </g>
                </g>
            </g>
        </g>
    </g>
</svg>